<svg width="650" height="440" viewBox="0 0 650 440" fill="none" xmlns="http://www.w3.org/2000/svg">
<rect x="105" width="210" height="65" rx="10" fill="white"/>
<rect x="105" y="150" width="210" height="65" rx="10" fill="white"/>
<rect x="105" y="300" width="210" height="65" rx="10" fill="white"/>
<rect x="325" width="210" height="65" rx="10" fill="white"/>
<rect x="325" y="150" width="210" height="65" rx="10" fill="white"/>
<rect x="325" y="300" width="210" height="65" rx="10" fill="white"/>
<rect y="75" width="210" height="65" rx="10" fill="white"/>
<rect y="225" width="210" height="65" rx="10" fill="white"/>
<rect y="375" width="210" height="65" rx="10" fill="white"/>
<rect x="220" y="75" width="210" height="65" rx="10" fill="white"/>
<rect x="220" y="225" width="210" height="65" rx="10" fill="white"/>
<rect x="220" y="375" width="210" height="65" rx="10" fill="white"/>
<rect x="440" y="75" width="210" height="65" rx="10" fill="white"/>
<rect x="440" y="225" width="210" height="65" rx="10" fill="white"/>
<rect x="440" y="375" width="210" height="65" rx="10" fill="white"/>
<path d="M279.975 210.89L320 139.338L360.025 210.89H279.975Z" fill="white" stroke="#E8333C" stroke-width="14"/>
<mask id="path-17-inside-1_103_74" fill="white">
<path d="M361.299 199.711C367.287 207.419 370.997 216.65 372.011 226.357C373.025 236.065 371.301 245.863 367.036 254.642C362.77 263.422 356.133 270.832 347.874 276.035C339.616 281.237 330.066 284.025 320.305 284.082C310.545 284.139 300.963 281.463 292.644 276.357C284.326 271.251 277.602 263.918 273.234 255.189C268.867 246.461 267.029 236.683 267.93 226.964C268.83 217.245 272.433 207.972 278.33 200.194L320 231.789L361.299 199.711Z"/>
</mask>
<path d="M361.299 199.711C367.287 207.419 370.997 216.65 372.011 226.357C373.025 236.065 371.301 245.863 367.036 254.642C362.77 263.422 356.133 270.832 347.874 276.035C339.616 281.237 330.066 284.025 320.305 284.082C310.545 284.139 300.963 281.463 292.644 276.357C284.326 271.251 277.602 263.918 273.234 255.189C268.867 246.461 267.029 236.683 267.93 226.964C268.83 217.245 272.433 207.972 278.33 200.194L320 231.789L361.299 199.711Z" fill="white" stroke="#E8333C" stroke-width="20" mask="url(#path-17-inside-1_103_74)"/>
<path d="M323.723 192.441L352.684 242.602C354.224 245.269 352.299 248.602 349.22 248.602H291.299C288.22 248.602 286.295 245.269 287.835 242.602L316.795 192.441C318.335 189.774 322.184 189.774 323.723 192.441Z" fill="white" stroke="white" stroke-width="10"/>
<path d="M320 154.385L353.984 216.25L286.016 216.25L320 154.385Z" fill="white" stroke="white" stroke-width="10"/>
<circle cx="320.259" cy="232.291" r="38.2133" fill="white"/>
<path d="M320 362C320 362 273.642 342.742 258.189 328.919C234.415 307.653 215.388 272.695 208.264 254.488C199.943 233.222 195.189 217.863 194 197.778V123.347C230.849 123.347 234.588 122.645 245.113 118.621C276.019 106.807 320 74.9073 320 69.0001" stroke="#E8333C" stroke-width="20"/>
<path d="M320 362C320 362 365.991 342.742 381.321 328.919C404.906 307.653 423.782 272.695 430.849 254.488C439.104 233.222 443.821 217.863 445 197.778V123.347C408.443 123.347 404.734 122.645 394.292 118.621C363.632 106.807 320 74.9073 320 69.0001" stroke="#E8333C" stroke-width="20"/>
<rect width="18" height="5" transform="translate(311 65)" fill="#E8333C"/>
<rect x="316" y="360.2" width="8" height="11" fill="#E8333C"/>
</svg>
